<!-- Generated by IcoMoon.io -->
<svg version="1.1" xmlns="http://www.w3.org/2000/svg" width="32" height="32" viewBox="0 0 32 32">
<path d="M1.372 0.055c-0.538 0.143-0.97 0.511-1.199 0.993l-0.005 0.011c-0.114 0.247-0.139 0.377-0.139 0.727 0.004 0.823-0.542 0.215 6.844 7.612l6.59 6.601-6.59 6.601c-7.387 7.397-6.841 6.789-6.844 7.612 0 0.517 0.155 0.905 0.503 1.253 0.3 0.311 0.72 0.505 1.186 0.505 0.024 0 0.047-0 0.071-0.002l-0.003 0c0.823-0.004 0.215 0.542 7.612-6.844l6.601-6.59 6.601 6.59c7.397 7.387 6.789 6.841 7.612 6.844 0.020 0.001 0.044 0.001 0.067 0.001 0.466 0 0.886-0.193 1.185-0.504l0-0c0.31-0.297 0.503-0.715 0.503-1.178 0-0.027-0.001-0.053-0.002-0.079l0 0.004c-0.007-0.83 0.546-0.215-6.843-7.612l-6.59-6.601 6.59-6.601c7.388-7.397 6.836-6.782 6.843-7.612 0.001-0.023 0.002-0.049 0.002-0.076 0-0.463-0.193-0.88-0.503-1.177l-0.001-0.001c-0.3-0.311-0.72-0.504-1.186-0.504-0.024 0-0.047 0.001-0.071 0.002l0.003-0c-0.823 0.004-0.215-0.542-7.612 6.844l-6.601 6.59-6.601-6.59c-5.852-5.845-6.631-6.604-6.88-6.708-0.324-0.135-0.852-0.187-1.147-0.112z"></path>
</svg>
