<!-- Generated by IcoMoon.io -->
<svg version="1.1" xmlns="http://www.w3.org/2000/svg" width="32" height="32" viewBox="0 0 32 32">
<path d="M0 16c0-8.837 7.163-16 16-16s16 7.163 16 16-7.163 16-16 16-16-7.163-16-16zM16 7.467c-2.317 0-2.608 0.010-3.518 0.051-0.908 0.042-1.528 0.186-2.070 0.397-0.592 0.226-1.097 0.561-1.512 0.983l-0.001 0.001c-0.423 0.416-0.758 0.92-0.975 1.482l-0.010 0.029c-0.211 0.543-0.355 1.163-0.396 2.071-0.040 0.91-0.051 1.201-0.051 3.52 0 2.317 0.010 2.607 0.051 3.517 0.042 0.908 0.186 1.528 0.397 2.070 0.226 0.592 0.561 1.097 0.983 1.512l0.001 0.001c0.474 0.474 0.95 0.767 1.511 0.985 0.543 0.21 1.163 0.354 2.072 0.396 0.91 0.041 1.2 0.052 3.518 0.052 2.317 0 2.607-0.010 3.518-0.052 0.908-0.042 1.529-0.185 2.072-0.396 0.591-0.226 1.095-0.561 1.509-0.984l0.001-0.001c0.475-0.475 0.767-0.95 0.985-1.512 0.21-0.543 0.354-1.163 0.397-2.071 0.040-0.91 0.051-1.2 0.051-3.518s-0.010-2.608-0.051-3.518c-0.043-0.909-0.187-1.53-0.397-2.072-0.227-0.591-0.562-1.095-0.984-1.509l-0.001-0.001c-0.415-0.423-0.919-0.758-1.481-0.974l-0.029-0.010c-0.545-0.211-1.165-0.355-2.074-0.397-0.91-0.041-1.2-0.051-3.518-0.051h0.003z"></path>
<path d="M15.235 9.005h0.766c2.278 0 2.548 0.008 3.448 0.049 0.832 0.038 1.284 0.177 1.584 0.294 0.398 0.154 0.682 0.34 0.98 0.638 0.3 0.299 0.484 0.583 0.64 0.981 0.116 0.3 0.256 0.752 0.293 1.584 0.041 0.9 0.050 1.17 0.050 3.447s-0.009 2.548-0.050 3.448c-0.038 0.832-0.177 1.283-0.294 1.584-0.154 0.398-0.34 0.681-0.638 0.98-0.268 0.276-0.596 0.494-0.962 0.632l-0.018 0.006c-0.301 0.117-0.753 0.256-1.585 0.294-0.9 0.041-1.17 0.050-3.448 0.050s-2.549-0.009-3.449-0.050c-0.832-0.038-1.283-0.177-1.584-0.294-0.385-0.144-0.712-0.362-0.98-0.637l-0.001-0.001c-0.277-0.269-0.494-0.596-0.633-0.963l-0.006-0.018c-0.117-0.3-0.256-0.752-0.294-1.584-0.040-0.9-0.049-1.17-0.049-3.449s0.008-2.547 0.050-3.447c0.037-0.832 0.176-1.283 0.293-1.584 0.155-0.398 0.34-0.683 0.639-0.981 0.298-0.3 0.583-0.484 0.981-0.639 0.3-0.117 0.752-0.256 1.585-0.294 0.787-0.036 1.092-0.046 2.682-0.048v0.002zM20.555 10.422c-0.566 0-1.024 0.458-1.024 1.024s0.458 1.024 1.024 1.024v0c0.566 0 1.024-0.458 1.024-1.024s-0.458-1.024-1.024-1.024v0zM16.001 11.618c-2.42 0-4.383 1.962-4.383 4.383s1.962 4.383 4.383 4.383v0c2.42 0 4.383-1.962 4.383-4.383s-1.962-4.383-4.383-4.383v0z"></path>
<path d="M16 13.155c1.571 0 2.845 1.274 2.845 2.845s-1.274 2.845-2.845 2.845v0c-1.571 0-2.845-1.274-2.845-2.845s1.274-2.845 2.845-2.845v0z"></path>
</svg>
