<?xml version="1.0" encoding="UTF-8"?>
<!DOCTYPE svg PUBLIC "-//W3C//DTD SVG 1.1//EN" "http://www.w3.org/Graphics/SVG/1.1/DTD/svg11.dtd">
<svg xmlns="http://www.w3.org/2000/svg" version="1.1" width="772px" height="323px" style="shape-rendering:geometricPrecision; text-rendering:geometricPrecision; image-rendering:optimizeQuality; fill-rule:evenodd; clip-rule:evenodd" xmlns:xlink="http://www.w3.org/1999/xlink">
<g><path style="opacity:1" fill="#b4e053" d="M 249.5,-0.5 C 263.167,-0.5 276.833,-0.5 290.5,-0.5C 314.606,4.77013 329.772,19.4368 336,43.5C 337.128,69.1399 337.628,94.8065 337.5,120.5C 337.49,144.208 337.157,167.875 336.5,191.5C 335.275,192.152 334.608,193.319 334.5,195C 333.969,197.817 333.636,200.65 333.5,203.5C 328.33,218.67 318.33,229.337 303.5,235.5C 299.452,235.84 295.452,236.506 291.5,237.5C 209.169,238.5 126.836,238.833 44.5,238.5C 20.2756,233.276 5.27558,218.609 -0.5,194.5C -0.5,188.167 -0.5,181.833 -0.5,175.5C -0.166667,175.5 0.166667,175.5 0.5,175.5C 2.10422,174.713 2.77089,173.38 2.5,171.5C 4.14297,171.48 5.4763,172.147 6.5,173.5C 7.80663,172.184 9.30663,171.184 11,170.5C 11.4479,168.591 10.6145,167.424 8.5,167C 10.2532,165.001 11.5865,162.835 12.5,160.5C 15.5,160.5 18.5,160.5 21.5,160.5C 21.5,159.167 21.5,157.833 21.5,156.5C 26.5603,157.117 30.8936,155.783 34.5,152.5C 64.2298,143.899 94.2298,135.899 124.5,128.5C 132.269,127.727 139.603,125.727 146.5,122.5C 173.317,115.864 192.484,99.8643 204,74.5C 210.937,55.022 218.271,35.6886 226,16.5C 231.732,7.73606 239.566,2.0694 249.5,-0.5 Z"/></g>
<g><path style="opacity:0.629" fill="#b9d868" d="M 146.5,122.5 C 139.603,125.727 132.269,127.727 124.5,128.5C 131.623,126.135 138.957,124.135 146.5,122.5 Z"/></g>
<g><path style="opacity:0.184" fill="#b8d472" d="M 599.5,130.5 C 600.822,130.33 601.989,130.663 603,131.5C 603.832,178.335 603.665,225.002 602.5,271.5C 602.833,225.162 602.5,178.829 601.5,132.5C 600.478,132.145 599.811,131.478 599.5,130.5 Z"/></g>
<g><path style="opacity:0.247" fill="#bcd573" d="M 411.5,200.5 C 410.503,180.007 410.169,159.34 410.5,138.5C 410.5,136.5 410.5,134.5 410.5,132.5C 406.167,132.5 401.833,132.5 397.5,132.5C 395.955,133.23 395.122,134.563 395,136.5C 394.5,181.499 394.333,226.499 394.5,271.5C 393.501,224.67 393.168,177.67 393.5,130.5C 399.425,130.192 405.259,130.525 411,131.5C 411.5,154.498 411.667,177.498 411.5,200.5 Z"/></g>
<g><path style="opacity:1" fill="#b3e052" d="M 397.5,132.5 C 401.833,132.5 406.167,132.5 410.5,132.5C 410.5,134.5 410.5,136.5 410.5,138.5C 409.698,139.952 409.198,141.618 409,143.5C 408.182,159.878 408.349,176.211 409.5,192.5C 408.975,193.192 408.308,193.692 407.5,194C 407.833,194.333 408.167,194.667 408.5,195C 406.604,196.808 406.104,198.975 407,201.5C 407.308,200.692 407.808,200.025 408.5,199.5C 409.834,202.507 409.501,205.341 407.5,208C 409.531,217.045 410.031,226.212 409,235.5C 408.667,235.833 408.333,236.167 408,236.5C 408.121,232.065 406.954,228.065 404.5,224.5C 405.5,223.667 406.5,222.833 407.5,222C 406.707,217.769 405.541,213.602 404,209.5C 402.951,211.107 401.451,211.773 399.5,211.5C 400.849,216.196 401.516,221.029 401.5,226C 401.349,231.012 400.849,235.846 400,240.5C 400.875,237.785 402.708,236.452 405.5,236.5C 405.757,246.691 405.424,256.525 404.5,266C 405.448,266.483 406.448,266.649 407.5,266.5C 407.168,257.475 407.502,248.475 408.5,239.5C 409.499,249.812 409.832,260.145 409.5,270.5C 405.167,270.5 400.833,270.5 396.5,270.5C 396.823,226.81 396.489,183.143 395.5,139.5C 396.019,137.087 396.685,134.754 397.5,132.5 Z"/></g>
<g><path style="opacity:1" fill="#badf58" d="M 598.5,130.5 C 598.833,130.5 599.167,130.5 599.5,130.5C 599.811,131.478 600.478,132.145 601.5,132.5C 602.5,178.829 602.833,225.162 602.5,271.5C 597.167,271.5 591.833,271.5 586.5,271.5C 586.333,225.165 586.5,178.832 587,132.5C 590.935,131.862 594.769,131.196 598.5,130.5 Z"/></g>
<g><path style="opacity:1" fill="#b4e053" d="M 588.5,133.5 C 592.833,133.5 597.167,133.5 601.5,133.5C 601.5,179.167 601.5,224.833 601.5,270.5C 597.233,270.797 593.066,270.464 589,269.5C 588.333,227.167 588.333,184.833 589,142.5C 589.36,140.579 590.194,138.912 591.5,137.5C 590.675,136.614 589.675,136.281 588.5,136.5C 588.5,135.5 588.5,134.5 588.5,133.5 Z"/></g>
<g><path style="opacity:1" fill="#b6df59" d="M 397.5,132.5 C 396.685,134.754 396.019,137.087 395.5,139.5C 396.489,183.143 396.823,226.81 396.5,270.5C 400.833,270.5 405.167,270.5 409.5,270.5C 409.832,260.145 409.499,249.812 408.5,239.5C 407.502,248.475 407.168,257.475 407.5,266.5C 406.448,266.649 405.448,266.483 404.5,266C 405.424,256.525 405.757,246.691 405.5,236.5C 402.708,236.452 400.875,237.785 400,240.5C 400.849,235.846 401.349,231.012 401.5,226C 401.516,221.029 400.849,216.196 399.5,211.5C 401.451,211.773 402.951,211.107 404,209.5C 405.541,213.602 406.707,217.769 407.5,222C 406.5,222.833 405.5,223.667 404.5,224.5C 406.954,228.065 408.121,232.065 408,236.5C 408.333,236.167 408.667,235.833 409,235.5C 410.031,226.212 409.531,217.045 407.5,208C 409.501,205.341 409.834,202.507 408.5,199.5C 407.808,200.025 407.308,200.692 407,201.5C 406.104,198.975 406.604,196.808 408.5,195C 408.167,194.667 407.833,194.333 407.5,194C 408.308,193.692 408.975,193.192 409.5,192.5C 408.349,176.211 408.182,159.878 409,143.5C 409.198,141.618 409.698,139.952 410.5,138.5C 410.169,159.34 410.503,180.007 411.5,200.5C 411.351,201.552 411.517,202.552 412,203.5C 412.67,200.826 413.837,198.493 415.5,196.5C 419.736,184.111 424.736,172.111 430.5,160.5C 430.447,163.14 429.78,165.64 428.5,168C 428.585,169.107 428.919,170.107 429.5,171C 424.704,175.511 423.37,180.678 425.5,186.5C 426.719,185.737 427.719,184.737 428.5,183.5C 430.111,184.32 430.778,185.654 430.5,187.5C 429.5,187.5 428.5,187.5 427.5,187.5C 428.505,190.721 429.339,194.054 430,197.5C 431.774,193.646 433.274,189.646 434.5,185.5C 435.309,183.269 436.643,181.602 438.5,180.5C 434.784,190.933 430.784,201.266 426.5,211.5C 434.822,231.481 443.156,251.481 451.5,271.5C 445.463,271.829 439.463,271.496 433.5,270.5C 426.333,253.5 419.167,236.5 412,219.5C 411.5,236.83 411.333,254.163 411.5,271.5C 405.833,271.5 400.167,271.5 394.5,271.5C 394.333,226.499 394.5,181.499 395,136.5C 395.122,134.563 395.955,133.23 397.5,132.5 Z"/></g>
<g><path style="opacity:0.943" fill="#b8d863" d="M 433.5,153.5 C 438.5,153.5 443.5,153.5 448.5,153.5C 448.5,154.833 448.5,156.167 448.5,157.5C 445.54,165.397 442.207,173.063 438.5,180.5C 438.579,179.07 438.246,177.736 437.5,176.5C 438.325,175.614 439.325,175.281 440.5,175.5C 442.636,167.755 444.97,160.755 447.5,154.5C 440.804,153.37 435.137,155.036 430.5,159.5C 430.992,157.181 431.992,155.181 433.5,153.5 Z"/></g>
<g><path style="opacity:0.69" fill="#bdcf7e" d="M 433.5,153.5 C 438.975,152.511 444.642,152.178 450.5,152.5C 450.598,154.553 449.931,156.22 448.5,157.5C 448.5,156.167 448.5,154.833 448.5,153.5C 443.5,153.5 438.5,153.5 433.5,153.5 Z"/></g>
<g><path style="opacity:1" fill="#b6df59" d="M 564.5,174.5 C 564.5,199.833 564.5,225.167 564.5,250.5C 564.68,254.286 563.68,257.619 561.5,260.5C 561.374,258.8 560.707,257.3 559.5,256C 560.723,254.28 561.723,252.447 562.5,250.5C 562.103,249.014 561.77,247.514 561.5,246C 562.769,236.418 563.435,226.751 563.5,217C 563.106,202.116 562.939,187.283 563,172.5C 562.64,170.392 561.973,168.392 561,166.5C 560.259,165.359 559.425,165.359 558.5,166.5C 557.833,164.167 557.167,161.833 556.5,159.5C 555.833,159.167 555.167,158.833 554.5,158.5C 553.833,159.833 553.167,161.167 552.5,162.5C 550.754,160.146 548.421,159.146 545.5,159.5C 547.238,162.835 548.905,166.335 550.5,170C 549.767,171.766 549.433,173.599 549.5,175.5C 548.694,174.003 548.028,172.336 547.5,170.5C 547.043,169.702 546.376,169.369 545.5,169.5C 545.5,169.167 545.5,168.833 545.5,168.5C 545.5,167.5 545.5,166.5 545.5,165.5C 542.833,165.5 540.167,165.5 537.5,165.5C 538.977,163.193 540.977,161.36 543.5,160C 541.741,159.202 540.074,159.369 538.5,160.5C 537.616,162.942 535.949,163.775 533.5,163C 534.337,161.989 534.67,160.822 534.5,159.5C 532.712,159.215 531.045,159.548 529.5,160.5C 531.447,162.276 531.78,164.276 530.5,166.5C 527.109,164.641 524.942,162.308 524,159.5C 522.989,160.337 521.822,160.67 520.5,160.5C 520.464,164.45 521.131,168.283 522.5,172C 522.354,173.727 521.687,173.894 520.5,172.5C 519.548,170.955 519.215,169.288 519.5,167.5C 518.5,167.5 517.5,167.5 516.5,167.5C 516.405,169.786 515.738,171.786 514.5,173.5C 516.584,159.084 524.917,151.751 539.5,151.5C 554.522,151.854 562.855,159.521 564.5,174.5 Z"/></g>
<g><path style="opacity:1" fill="#b4e053" d="M 750.5,271.5 C 745.5,271.5 740.5,271.5 735.5,271.5C 735.5,271.167 735.5,270.833 735.5,270.5C 736.811,232.375 736.811,193.708 735.5,154.5C 740.5,154.5 745.5,154.5 750.5,154.5C 750.5,157.833 750.5,161.167 750.5,164.5C 751.5,164.5 752.5,164.5 753.5,164.5C 753.5,165.5 753.5,166.5 753.5,167.5C 748.938,167.279 748.272,168.779 751.5,172C 750.504,205.093 750.171,238.26 750.5,271.5 Z"/></g>
<g><path style="opacity:1" fill="#b5e055" d="M 464.5,271.5 C 464.5,232.5 464.5,193.5 464.5,154.5C 469.833,154.5 475.167,154.5 480.5,154.5C 480.232,156.099 480.566,157.432 481.5,158.5C 481.369,159.239 481.536,159.906 482,160.5C 486.94,154.113 493.44,151.113 501.5,151.5C 501.5,156.5 501.5,161.5 501.5,166.5C 493.714,166.148 487.214,168.815 482,174.5C 481.5,206.832 481.333,239.165 481.5,271.5C 475.833,271.5 470.167,271.5 464.5,271.5 Z"/></g>
<g><path style="opacity:1" fill="#b9da6b" d="M 681.5,152.5 C 680.378,153.947 678.878,154.947 677,155.5C 675.858,157.618 675.358,159.618 675.5,161.5C 674.521,158.047 673.021,157.714 671,160.5C 668.543,164.098 666.376,167.765 664.5,171.5C 666.323,161.68 671.989,155.346 681.5,152.5 Z"/></g>
<g><path style="opacity:0.302" fill="#b6d36d" d="M 481.5,158.5 C 480.566,157.432 480.232,156.099 480.5,154.5C 475.167,154.5 469.833,154.5 464.5,154.5C 464.5,193.5 464.5,232.5 464.5,271.5C 463.501,232.004 463.168,192.337 463.5,152.5C 469.176,152.334 474.843,152.501 480.5,153C 481.406,154.699 481.739,156.533 481.5,158.5 Z"/></g>
<g><path style="opacity:1" fill="#b7dd5c" d="M 771.5,151.5 C 771.5,156.5 771.5,161.5 771.5,166.5C 763.802,166.266 757.302,168.933 752,174.5C 751.832,207.003 751.332,239.336 750.5,271.5C 750.171,238.26 750.504,205.093 751.5,172C 748.272,168.779 748.938,167.279 753.5,167.5C 753.5,166.5 753.5,165.5 753.5,164.5C 752.5,164.5 751.5,164.5 750.5,164.5C 750.5,161.167 750.5,157.833 750.5,154.5C 745.5,154.5 740.5,154.5 735.5,154.5C 736.811,193.708 736.811,232.375 735.5,270.5C 734.501,231.67 734.168,192.67 734.5,153.5C 739.65,152.349 744.984,152.183 750.5,153C 751.282,155.74 751.782,158.574 752,161.5C 756.487,154.339 762.987,151.006 771.5,151.5 Z"/></g>
<g><path style="opacity:1" fill="#b8dd60" d="M 34.5,152.5 C 30.8936,155.783 26.5603,157.117 21.5,156.5C 21.5,157.833 21.5,159.167 21.5,160.5C 18.5,160.5 15.5,160.5 12.5,160.5C 11.5865,162.835 10.2532,165.001 8.5,167C 10.6145,167.424 11.4479,168.591 11,170.5C 9.30663,171.184 7.80663,172.184 6.5,173.5C 5.4763,172.147 4.14297,171.48 2.5,171.5C 2.77089,173.38 2.10422,174.713 0.5,175.5C 2.7213,166.77 8.05464,160.603 16.5,157C 22.3867,154.981 28.3867,153.481 34.5,152.5 Z"/></g>
<g><path style="opacity:1" fill="#b4e153" d="M 438.5,180.5 C 436.643,181.602 435.309,183.269 434.5,185.5C 433.274,189.646 431.774,193.646 430,197.5C 429.339,194.054 428.505,190.721 427.5,187.5C 428.5,187.5 429.5,187.5 430.5,187.5C 430.778,185.654 430.111,184.32 428.5,183.5C 427.719,184.737 426.719,185.737 425.5,186.5C 423.37,180.678 424.704,175.511 429.5,171C 428.919,170.107 428.585,169.107 428.5,168C 429.78,165.64 430.447,163.14 430.5,160.5C 430.5,160.167 430.5,159.833 430.5,159.5C 435.137,155.036 440.804,153.37 447.5,154.5C 444.97,160.755 442.636,167.755 440.5,175.5C 439.325,175.281 438.325,175.614 437.5,176.5C 438.246,177.736 438.579,179.07 438.5,180.5 Z"/></g>
<g><path style="opacity:1" fill="#b4e053" d="M 561.5,260.5 C 561.25,262.674 560.25,264.341 558.5,265.5C 556.685,266.63 554.685,267.296 552.5,267.5C 552.719,266.325 552.386,265.325 551.5,264.5C 548.522,264.993 546.189,266.493 544.5,269C 544.957,269.414 545.291,269.914 545.5,270.5C 543.535,271.292 541.535,271.959 539.5,272.5C 538.289,271.726 538.289,270.893 539.5,270C 537.009,269.741 534.509,269.907 532,270.5C 529.447,269.806 526.947,268.973 524.5,268C 524.038,266.278 523.872,264.445 524,262.5C 522.601,261.773 521.101,261.273 519.5,261C 519.13,259.39 519.797,257.89 521.5,256.5C 520.132,255.406 518.965,255.74 518,257.5C 517.964,255.059 517.131,253.059 515.5,251.5C 514.5,225.509 514.167,199.509 514.5,173.5C 515.738,171.786 516.405,169.786 516.5,167.5C 517.5,167.5 518.5,167.5 519.5,167.5C 519.215,169.288 519.548,170.955 520.5,172.5C 521.687,173.894 522.354,173.727 522.5,172C 521.131,168.283 520.464,164.45 520.5,160.5C 521.822,160.67 522.989,160.337 524,159.5C 524.942,162.308 527.109,164.641 530.5,166.5C 531.78,164.276 531.447,162.276 529.5,160.5C 531.045,159.548 532.712,159.215 534.5,159.5C 534.67,160.822 534.337,161.989 533.5,163C 535.949,163.775 537.616,162.942 538.5,160.5C 540.074,159.369 541.741,159.202 543.5,160C 540.977,161.36 538.977,163.193 537.5,165.5C 535.071,165.884 532.737,166.551 530.5,167.5C 530.5,170.167 530.5,172.833 530.5,175.5C 529.168,187.148 528.501,199.148 528.5,211.5C 528.667,223.5 528.833,235.5 529,247.5C 529.322,250.666 530.489,253.333 532.5,255.5C 538.707,259.992 543.707,258.992 547.5,252.5C 548.181,250.842 549.015,249.175 550,247.5C 550.83,224.996 550.663,202.663 549.5,180.5C 549.5,178.833 549.5,177.167 549.5,175.5C 549.433,173.599 549.767,171.766 550.5,170C 548.905,166.335 547.238,162.835 545.5,159.5C 548.421,159.146 550.754,160.146 552.5,162.5C 553.167,161.167 553.833,159.833 554.5,158.5C 555.167,158.833 555.833,159.167 556.5,159.5C 557.167,161.833 557.833,164.167 558.5,166.5C 559.425,165.359 560.259,165.359 561,166.5C 561.973,168.392 562.64,170.392 563,172.5C 562.939,187.283 563.106,202.116 563.5,217C 563.435,226.751 562.769,236.418 561.5,246C 561.77,247.514 562.103,249.014 562.5,250.5C 561.723,252.447 560.723,254.28 559.5,256C 560.707,257.3 561.374,258.8 561.5,260.5 Z M 545.5,168.5 C 545.5,168.833 545.5,169.167 545.5,169.5C 546.968,172.278 547.801,175.278 548,178.5C 548.5,199.831 548.667,221.164 548.5,242.5C 547.949,245.807 547.616,249.14 547.5,252.5C 543.707,258.992 538.707,259.992 532.5,255.5C 532.005,253.518 531.505,251.518 531,249.5C 530.5,224.836 530.333,200.169 530.5,175.5C 532.363,166.473 537.363,164.14 545.5,168.5 Z"/></g>
<g><path style="opacity:0.718" fill="#bbda63" d="M 625.5,131.5 C 630.833,131.5 636.167,131.5 641.5,131.5C 641.5,178.167 641.5,224.833 641.5,271.5C 636.167,271.5 630.833,271.5 625.5,271.5C 625.5,224.833 625.5,178.167 625.5,131.5 Z"/></g>
<g><path style="opacity:1" fill="#b4e054" d="M 626.5,132.5 C 631.167,132.5 635.833,132.5 640.5,132.5C 640.5,178.5 640.5,224.5 640.5,270.5C 635.833,270.5 631.167,270.5 626.5,270.5C 626.5,224.5 626.5,178.5 626.5,132.5 Z"/></g>
<g><path style="opacity:1" fill="#bad76a" d="M 537.5,165.5 C 540.167,165.5 542.833,165.5 545.5,165.5C 545.5,166.5 545.5,167.5 545.5,168.5C 537.363,164.14 532.363,166.473 530.5,175.5C 530.5,172.833 530.5,170.167 530.5,167.5C 532.737,166.551 535.071,165.884 537.5,165.5 Z"/></g>
<g><path style="opacity:1" fill="#b9db68" d="M 697.5,152.5 C 707.033,155.207 712.533,161.54 714,171.5C 714.498,174.482 714.665,177.482 714.5,180.5C 713.883,180.389 713.383,180.056 713,179.5C 712.971,174.647 712.138,169.98 710.5,165.5C 706.942,164.025 705.109,161.359 705,157.5C 701.986,156.461 699.486,154.795 697.5,152.5 Z"/></g>
<g><path style="opacity:1" fill="#b4e055" d="M 697.5,152.5 C 699.486,154.795 701.986,156.461 705,157.5C 705.109,161.359 706.942,164.025 710.5,165.5C 712.138,169.98 712.971,174.647 713,179.5C 713.383,180.056 713.883,180.389 714.5,180.5C 714.5,180.833 714.5,181.167 714.5,181.5C 714.5,191.833 714.5,202.167 714.5,212.5C 702.988,212.172 691.654,212.505 680.5,213.5C 679.17,219.463 678.504,225.796 678.5,232.5C 678.667,238.833 678.833,245.167 679,251.5C 679.307,257.141 682.307,260.141 688,260.5C 689.699,260.613 690.866,259.947 691.5,258.5C 693.707,257.87 695.374,256.536 696.5,254.5C 697.268,253.737 697.768,252.737 698,251.5C 698.171,243.656 698.671,235.989 699.5,228.5C 699.571,235.877 699.571,243.044 699.5,250C 700.672,250.419 701.672,251.085 702.5,252C 701.624,254.376 699.958,255.876 697.5,256.5C 699.304,257.768 701.304,258.435 703.5,258.5C 703.201,256.396 703.534,254.396 704.5,252.5C 705.167,256.5 705.833,260.5 706.5,264.5C 707.853,263.315 709.02,261.981 710,260.5C 708.751,256.475 707.918,252.142 707.5,247.5C 708.5,247.5 709.5,247.5 710.5,247.5C 710.413,244.402 710.913,244.068 712,246.5C 712.374,244.509 713.207,242.842 714.5,241.5C 715.086,268.376 702.419,278.209 676.5,271C 669.24,266.995 665.073,260.829 664,252.5C 663.696,248.452 663.196,244.452 662.5,240.5C 663.117,240.389 663.617,240.056 664,239.5C 664.5,217.169 664.667,194.836 664.5,172.5C 664.5,172.167 664.5,171.833 664.5,171.5C 666.376,167.765 668.543,164.098 671,160.5C 673.021,157.714 674.521,158.047 675.5,161.5C 675.358,159.618 675.858,157.618 677,155.5C 678.878,154.947 680.378,153.947 681.5,152.5C 686.833,151.167 692.167,151.167 697.5,152.5 Z M 693.5,166.5 C 695.7,168.262 696.867,170.596 697,173.5C 697.181,182.744 697.681,191.911 698.5,201C 692.175,201.5 685.842,201.666 679.5,201.5C 680.081,191.518 680.914,181.518 682,171.5C 684.425,166.937 688.258,165.271 693.5,166.5 Z"/></g>
<g><path style="opacity:0.776" fill="#bcd96f" d="M 530.5,175.5 C 530.333,200.169 530.5,224.836 531,249.5C 531.505,251.518 532.005,253.518 532.5,255.5C 530.489,253.333 529.322,250.666 529,247.5C 528.833,235.5 528.667,223.5 528.5,211.5C 528.501,199.148 529.168,187.148 530.5,175.5 Z"/></g>
<g><path style="opacity:0.889" fill="#b9d66b" d="M 564.5,174.5 C 565.314,176.631 565.814,178.964 566,181.5C 566.667,201.833 566.667,222.167 566,242.5C 565.817,245.365 565.317,248.031 564.5,250.5C 564.5,225.167 564.5,199.833 564.5,174.5 Z"/></g>
<g><path style="opacity:1" fill="#b4e152" d="M 415.5,196.5 C 416.496,196.414 417.329,196.748 418,197.5C 417.952,193.479 418.952,189.813 421,186.5C 424.01,190.8 426.51,195.3 428.5,200C 427.22,202.36 426.553,204.86 426.5,207.5C 424.833,207.5 423.167,207.5 421.5,207.5C 421.222,210.29 421.889,212.79 423.5,215C 421.038,216.605 419.205,218.771 418,221.5C 416.989,220.663 415.822,220.33 414.5,220.5C 412.279,215.811 410.946,210.811 410.5,205.5C 414.207,203.769 415.874,200.769 415.5,196.5 Z"/></g>
<g><path style="opacity:0.733" fill="#bdda73" d="M 336.5,191.5 C 336.416,195.837 335.416,199.837 333.5,203.5C 333.636,200.65 333.969,197.817 334.5,195C 334.608,193.319 335.275,192.152 336.5,191.5 Z"/></g>
<g><path style="opacity:0.133" fill="#bcd371" d="M 734.5,153.5 C 734.168,192.67 734.501,231.67 735.5,270.5C 735.5,270.833 735.5,271.167 735.5,271.5C 734.167,252.178 733.5,232.512 733.5,212.5C 733.5,192.664 733.833,172.997 734.5,153.5 Z"/></g>
<g><path style="opacity:1" fill="#b9de61" d="M 693.5,166.5 C 695.117,167.038 696.784,167.371 698.5,167.5C 699.695,179.163 699.695,190.829 698.5,202.5C 692.574,204.426 686.574,206.093 680.5,207.5C 680.241,205.458 679.908,203.458 679.5,201.5C 685.842,201.666 692.175,201.5 698.5,201C 697.681,191.911 697.181,182.744 697,173.5C 696.867,170.596 695.7,168.262 693.5,166.5 Z"/></g>
<g><path style="opacity:0.247" fill="#bed781" d="M 545.5,169.5 C 546.376,169.369 547.043,169.702 547.5,170.5C 548.028,172.336 548.694,174.003 549.5,175.5C 549.5,177.167 549.5,178.833 549.5,180.5C 549.831,201.34 549.497,222.007 548.5,242.5C 548.667,221.164 548.5,199.831 548,178.5C 547.801,175.278 546.968,172.278 545.5,169.5 Z"/></g>
<g><path style="opacity:0.976" fill="#b9dc63" d="M 549.5,180.5 C 550.663,202.663 550.83,224.996 550,247.5C 549.015,249.175 548.181,250.842 547.5,252.5C 547.616,249.14 547.949,245.807 548.5,242.5C 549.497,222.007 549.831,201.34 549.5,180.5 Z"/></g>
<g><path style="opacity:0.962" fill="#bdda70" d="M 664.5,172.5 C 664.667,194.836 664.5,217.169 664,239.5C 663.617,240.056 663.117,240.389 662.5,240.5C 662.333,220.831 662.5,201.164 663,181.5C 663.181,178.305 663.681,175.305 664.5,172.5 Z"/></g>
<g><path style="opacity:0.388" fill="#beda70" d="M 714.5,181.5 C 715.494,191.987 715.828,202.654 715.5,213.5C 703.833,213.5 692.167,213.5 680.5,213.5C 691.654,212.505 702.988,212.172 714.5,212.5C 714.5,202.167 714.5,191.833 714.5,181.5 Z"/></g>
<g><path style="opacity:0.11" fill="#b9d16f" d="M 598.5,130.5 C 594.769,131.196 590.935,131.862 587,132.5C 586.5,178.832 586.333,225.165 586.5,271.5C 585.335,225.002 585.168,178.335 586,131.5C 590.066,130.536 594.233,130.203 598.5,130.5 Z"/></g>
<g><path style="opacity:0.416" fill="#b9d582" d="M 625.5,131.5 C 630.975,130.511 636.642,130.178 642.5,130.5C 642.832,177.67 642.499,224.67 641.5,271.5C 641.5,224.833 641.5,178.167 641.5,131.5C 636.167,131.5 630.833,131.5 625.5,131.5 Z"/></g>
<g><path style="opacity:1" fill="#bcda6f" d="M 714.5,230.5 C 713.711,230.217 713.044,229.717 712.5,229C 708.179,228.501 703.846,228.334 699.5,228.5C 698.671,235.989 698.171,243.656 698,251.5C 697.768,252.737 697.268,253.737 696.5,254.5C 697.387,245.199 697.721,235.866 697.5,226.5C 703.167,226.5 708.833,226.5 714.5,226.5C 714.5,227.833 714.5,229.167 714.5,230.5 Z"/></g>
<g><path style="opacity:1" fill="#b3e153" d="M 699.5,228.5 C 703.846,228.334 708.179,228.501 712.5,229C 713.044,229.717 713.711,230.217 714.5,230.5C 714.5,234.167 714.5,237.833 714.5,241.5C 713.207,242.842 712.374,244.509 712,246.5C 710.913,244.068 710.413,244.402 710.5,247.5C 709.5,247.5 708.5,247.5 707.5,247.5C 707.918,252.142 708.751,256.475 710,260.5C 709.02,261.981 707.853,263.315 706.5,264.5C 705.833,260.5 705.167,256.5 704.5,252.5C 703.534,254.396 703.201,256.396 703.5,258.5C 701.304,258.435 699.304,257.768 697.5,256.5C 699.958,255.876 701.624,254.376 702.5,252C 701.672,251.085 700.672,250.419 699.5,250C 699.571,243.044 699.571,235.877 699.5,228.5 Z"/></g>
<g><path style="opacity:0.702" fill="#bfdc73" d="M 303.5,235.5 C 297.89,238.061 291.89,239.561 285.5,240C 221.167,240.667 156.833,240.667 92.5,240C 76.3281,239.831 60.3281,239.331 44.5,238.5C 126.836,238.833 209.169,238.5 291.5,237.5C 295.452,236.506 299.452,235.84 303.5,235.5 Z"/></g>
<g><path style="opacity:1" fill="#b4e055" d="M 155.5,276.5 C 156.29,283.471 156.623,290.471 156.5,297.5C 152.396,310.604 143.73,318.937 130.5,322.5C 125.833,322.5 121.167,322.5 116.5,322.5C 110.816,320.489 105.483,317.656 100.5,314C 97.5264,310.872 95.1931,307.372 93.5,303.5C 92.8352,298.843 92.1686,294.177 91.5,289.5C 91.7163,287.616 92.383,285.949 93.5,284.5C 92.2941,282.484 92.2941,280.484 93.5,278.5C 94.8626,279.879 95.8626,279.713 96.5,278C 93.4292,273.712 94.4292,270.879 99.5,269.5C 99.1496,266.547 100.15,264.213 102.5,262.5C 110.658,254.937 120.324,252.437 131.5,255C 143.187,258.194 151.187,265.36 155.5,276.5 Z M 120.5,276.5 C 133.004,276.511 137.504,282.511 134,294.5C 129.171,300.498 123.338,301.664 116.5,298C 112.695,293.909 111.528,289.076 113,283.5C 114.742,280.254 117.242,277.921 120.5,276.5 Z"/></g>
<g><path style="opacity:1" fill="#b4e054" d="M 238.5,266.5 C 239.974,267.436 240.974,268.77 241.5,270.5C 242.607,274.23 243.273,278.064 243.5,282C 241.916,289.757 241.249,297.591 241.5,305.5C 239.876,305.64 238.71,304.973 238,303.5C 237.51,304.793 237.343,306.127 237.5,307.5C 236.167,307.5 234.833,307.5 233.5,307.5C 233.704,309.685 234.37,311.685 235.5,313.5C 230.707,317.56 225.374,320.56 219.5,322.5C 214.833,322.5 210.167,322.5 205.5,322.5C 198.043,320.182 191.543,316.182 186,310.5C 184.295,308.423 183.128,306.09 182.5,303.5C 180.508,296.909 179.841,290.242 180.5,283.5C 182.317,279.713 183.317,275.713 183.5,271.5C 184.5,271.5 185.5,271.5 186.5,271.5C 186.517,269.435 186.85,267.435 187.5,265.5C 191.172,260.995 195.839,257.995 201.5,256.5C 208.49,255.354 215.49,255.354 222.5,256.5C 222.343,257.873 222.51,259.207 223,260.5C 224.356,259.62 225.856,259.286 227.5,259.5C 227.351,260.552 227.517,261.552 228,262.5C 229.388,261.446 230.888,261.28 232.5,262C 234.114,264.127 236.114,265.627 238.5,266.5 Z M 209.5,276.5 C 219.648,276.48 224.482,281.48 224,291.5C 220.894,299.316 215.394,301.816 207.5,299C 200.3,294.63 198.8,288.797 203,281.5C 204.965,279.45 207.132,277.783 209.5,276.5 Z"/></g>
<g><path style="opacity:0.996" fill="#b9db64" d="M 326.5,265.5 C 323.753,264.034 320.753,263.201 317.5,263C 316.304,258.775 313.638,257.275 309.5,258.5C 303.47,255.361 297.137,254.694 290.5,256.5C 304.427,251.696 316.427,254.696 326.5,265.5 Z"/></g>
<g><path style="opacity:1" fill="#bad96c" d="M 680.5,213.5 C 680.115,227.212 680.615,240.879 682,254.5C 684.408,257.62 687.574,258.953 691.5,258.5C 690.866,259.947 689.699,260.613 688,260.5C 682.307,260.141 679.307,257.141 679,251.5C 678.833,245.167 678.667,238.833 678.5,232.5C 678.504,225.796 679.17,219.463 680.5,213.5 Z"/></g>
<g><path style="opacity:1" fill="#bada67" d="M 238.5,266.5 C 236.114,265.627 234.114,264.127 232.5,262C 230.888,261.28 229.388,261.446 228,262.5C 227.517,261.552 227.351,260.552 227.5,259.5C 225.856,259.286 224.356,259.62 223,260.5C 222.51,259.207 222.343,257.873 222.5,256.5C 215.49,255.354 208.49,255.354 201.5,256.5C 216.001,251.665 228.334,254.998 238.5,266.5 Z"/></g>
<g><path style="opacity:1" fill="#b4e054" d="M 326.5,265.5 C 328.796,267.401 330.629,269.734 332,272.5C 333.009,274.025 333.509,275.692 333.5,277.5C 333.975,281.143 334.308,284.81 334.5,288.5C 334.303,293.304 333.637,297.971 332.5,302.5C 327.654,312.927 319.654,319.593 308.5,322.5C 303.833,322.5 299.167,322.5 294.5,322.5C 281.305,318.974 272.639,310.64 268.5,297.5C 268.845,290.45 269.678,283.45 271,276.5C 272.903,272.36 275.07,268.36 277.5,264.5C 280.797,260.213 285.131,257.546 290.5,256.5C 297.137,254.694 303.47,255.361 309.5,258.5C 313.638,257.275 316.304,258.775 317.5,263C 320.753,263.201 323.753,264.034 326.5,265.5 Z M 308.5,278.5 C 315.063,284.952 315.063,291.452 308.5,298C 301.125,301.823 295.125,300.323 290.5,293.5C 288.076,283.92 291.742,278.253 301.5,276.5C 303.932,276.886 306.266,277.553 308.5,278.5 Z"/></g>
<g><path style="opacity:1" fill="#b9dc66" d="M 514.5,173.5 C 514.167,199.509 514.5,225.509 515.5,251.5C 517.131,253.059 517.964,255.059 518,257.5C 518.965,255.74 520.132,255.406 521.5,256.5C 519.797,257.89 519.13,259.39 519.5,261C 521.101,261.273 522.601,261.773 524,262.5C 523.872,264.445 524.038,266.278 524.5,268C 526.947,268.973 529.447,269.806 532,270.5C 534.509,269.907 537.009,269.741 539.5,270C 538.289,270.893 538.289,271.726 539.5,272.5C 541.535,271.959 543.535,271.292 545.5,270.5C 545.291,269.914 544.957,269.414 544.5,269C 546.189,266.493 548.522,264.993 551.5,264.5C 552.386,265.325 552.719,266.325 552.5,267.5C 554.685,267.296 556.685,266.63 558.5,265.5C 556.276,268.624 553.276,270.791 549.5,272C 527.235,277.068 515.068,268.234 513,245.5C 512.333,223.5 512.333,201.5 513,179.5C 513.191,177.292 513.691,175.292 514.5,173.5 Z"/></g>
<g><path style="opacity:1" fill="#b5e055" d="M 55.5,315.5 C 51.8466,315.527 48.18,315.527 44.5,315.5C 43.0337,316.135 41.7003,316.969 40.5,318C 41.731,319.183 41.731,320.349 40.5,321.5C 37.8908,320.77 35.2241,320.27 32.5,320C 30.301,318.454 28.1343,316.954 26,315.5C 23.7586,315.68 23.2586,316.513 24.5,318C 23.2068,318.49 21.8734,318.657 20.5,318.5C 20.5,317.5 20.5,316.5 20.5,315.5C 18.8008,315.66 17.1341,315.494 15.5,315C 14.5291,313.519 13.1958,312.685 11.5,312.5C 7.35606,309.562 4.68939,305.562 3.5,300.5C 2.44692,293.536 2.28025,286.536 3,279.5C 4.20491,276.438 5.37158,273.438 6.5,270.5C 16.0154,255.936 29.3487,251.103 46.5,256C 68.6756,267.513 74.5089,284.68 64,307.5C 61.2972,310.371 58.4639,313.038 55.5,315.5 Z M 31.5,276.5 C 42.8653,276.028 47.6986,281.362 46,292.5C 41.1012,300.682 34.6012,302.182 26.5,297C 21.0309,288.552 22.6976,281.719 31.5,276.5 Z"/></g>
<g><path style="opacity:1" fill="#b8dc63" d="M 308.5,278.5 C 306.266,277.553 303.932,276.886 301.5,276.5C 291.742,278.253 288.076,283.92 290.5,293.5C 288.689,293.428 287.356,292.595 286.5,291C 287.902,288.458 288.902,285.792 289.5,283C 288.643,282.311 287.977,281.478 287.5,280.5C 288.912,279.194 290.579,278.36 292.5,278C 290.896,276.763 289.229,275.597 287.5,274.5C 289.259,273.246 290.759,273.579 292,275.5C 292.333,275.167 292.667,274.833 293,274.5C 297.784,275.143 302.617,275.809 307.5,276.5C 307.863,277.183 308.196,277.85 308.5,278.5 Z"/></g>
<g><path style="opacity:1" fill="#bbe066" d="M 277.5,264.5 C 275.07,268.36 272.903,272.36 271,276.5C 269.678,283.45 268.845,290.45 268.5,297.5C 266.111,287.341 267.611,277.674 273,268.5C 274.371,266.959 275.871,265.625 277.5,264.5 Z"/></g>
<g><path style="opacity:1" fill="#badf5e" d="M 241.5,270.5 C 249.245,283.543 248.745,296.543 240,309.5C 238.629,311.041 237.129,312.375 235.5,313.5C 234.37,311.685 233.704,309.685 233.5,307.5C 234.833,307.5 236.167,307.5 237.5,307.5C 237.343,306.127 237.51,304.793 238,303.5C 238.71,304.973 239.876,305.64 241.5,305.5C 241.249,297.591 241.916,289.757 243.5,282C 243.273,278.064 242.607,274.23 241.5,270.5 Z"/></g>
<g><path style="opacity:0.79" fill="#bed66e" d="M 155.5,276.5 C 158.904,283.382 159.237,290.382 156.5,297.5C 156.623,290.471 156.29,283.471 155.5,276.5 Z"/></g>
<g><path style="opacity:1" fill="#bbdf65" d="M 187.5,265.5 C 186.85,267.435 186.517,269.435 186.5,271.5C 185.5,271.5 184.5,271.5 183.5,271.5C 183.317,275.713 182.317,279.713 180.5,283.5C 179.841,290.242 180.508,296.909 182.5,303.5C 180.489,301.333 179.322,298.666 179,295.5C 176.887,283.931 179.721,273.931 187.5,265.5 Z"/></g>
<g><path style="opacity:0.898" fill="#bbd86d" d="M 6.5,270.5 C 5.37158,273.438 4.20491,276.438 3,279.5C 2.28025,286.536 2.44692,293.536 3.5,300.5C -0.301358,292.403 -0.468025,284.069 3,275.5C 3.69724,273.416 4.8639,271.749 6.5,270.5 Z"/></g>
<g><path style="opacity:0.355" fill="#bfdb73" d="M 333.5,277.5 C 335.039,280.865 335.706,284.531 335.5,288.5C 335.908,293.593 334.908,298.26 332.5,302.5C 333.637,297.971 334.303,293.304 334.5,288.5C 334.308,284.81 333.975,281.143 333.5,277.5 Z"/></g>
<g><path style="opacity:0.855" fill="#badd64" d="M 102.5,262.5 C 100.15,264.213 99.1496,266.547 99.5,269.5C 94.4292,270.879 93.4292,273.712 96.5,278C 95.8626,279.713 94.8626,279.879 93.5,278.5C 92.2941,280.484 92.2941,282.484 93.5,284.5C 92.383,285.949 91.7163,287.616 91.5,289.5C 92.1686,294.177 92.8352,298.843 93.5,303.5C 87.3763,290.595 88.543,278.262 97,266.5C 98.451,264.536 100.284,263.203 102.5,262.5 Z"/></g>
<g><path style="opacity:1" fill="#b8df5c" d="M 11.5,312.5 C 13.1958,312.685 14.5291,313.519 15.5,315C 17.1341,315.494 18.8008,315.66 20.5,315.5C 20.5,316.5 20.5,317.5 20.5,318.5C 21.8734,318.657 23.2068,318.49 24.5,318C 23.2586,316.513 23.7586,315.68 26,315.5C 28.1343,316.954 30.301,318.454 32.5,320C 35.2241,320.27 37.8908,320.77 40.5,321.5C 41.731,320.349 41.731,319.183 40.5,318C 41.7003,316.969 43.0337,316.135 44.5,315.5C 48.18,315.527 51.8466,315.527 55.5,315.5C 51.5812,318.626 47.2479,320.959 42.5,322.5C 37.5,322.5 32.5,322.5 27.5,322.5C 23.4755,320.98 19.4755,319.146 15.5,317C 13.9586,315.629 12.6253,314.129 11.5,312.5 Z"/></g>
</svg>
